<?xml version="1.0" standalone="no"?>
<!DOCTYPE svg PUBLIC "-//W3C//DTD SVG 20010904//EN"
 "http://www.w3.org/TR/2001/REC-SVG-20010904/DTD/svg10.dtd">
<svg version="1.0" xmlns="http://www.w3.org/2000/svg"
 width="641.000000pt" height="456.000000pt" viewBox="0 0 641.000000 456.000000"
 preserveAspectRatio="xMidYMid meet">

<g transform="translate(0.000000,456.000000) scale(0.100000,-0.100000)"
fill="#0b76ef" stroke="#0b76ef">
<path d="M5732 4535 c-85 -19 -161 -55 -230 -109 -31 -24 -734 -722 -1561
-1549 l-1504 -1505 -36 5 c-46 7 -71 29 -71 62 0 22 -132 158 -717 742 -689
687 -721 718 -793 753 -233 113 -471 75 -650 -104 -117 -116 -164 -233 -163
-400 1 -100 35 -215 87 -293 50 -74 1969 -1991 2041 -2038 87 -58 179 -84 295
-83 103 0 216 27 261 62 13 11 38 26 54 35 39 20 779 762 785 787 7 27 99 120
119 120 21 0 801 780 801 800 0 20 91 110 110 110 19 0 796 778 804 805 8 27
88 106 110 109 21 3 796 776 796 793 0 6 18 32 39 57 93 107 123 315 67 472
-61 173 -201 308 -375 361 -69 21 -197 25 -269 8z m-4750 -2652 c26 -26 48
-56 48 -67 0 -27 -89 -116 -116 -116 -25 0 -114 91 -114 117 0 24 90 113 114
113 11 0 42 -21 68 -47z m1336 -486 c38 -39 53 -67 35 -67 -13 0 -93 84 -93
97 0 22 14 15 58 -30z"/>
<path d="M920 1877 c0 -9 9 -21 20 -27 11 -6 20 -7 20 -2 0 5 -9 17 -20 27
-18 16 -20 16 -20 2z"/>
<path d="M872 1838 c-17 -17 -15 -42 6 -61 22 -20 43 -22 60 -5 17 17 15 42
-6 61 -22 20 -43 22 -60 5z m56 -35 c3 -17 -2 -23 -16 -23 -18 0 -32 18 -32
42 0 21 45 3 48 -19z"/>
<path d="M2360 1426 c0 -2 8 -10 18 -17 15 -13 16 -12 3 4 -13 16 -21 21 -21
13z"/>
</g>
</svg>
